HIERARCHY
ROOT Hips
{
  OFFSET -31.5692 30.0904 122.763
  CHANNELS 6 Xposition Yposition Zposition Zrotation Xrotation Yrotation
  JOINT LeftUpLeg
  {
    OFFSET 8.64259 1.95398 -2.38835
    CHANNELS 3 Zrotation Xrotation Yrotation
    JOINT LeftLeg
    {
      OFFSET 43.7702 0 0
      CHANNELS 3 Zrotation Xrotation Yrotation
      JOINT LeftFoot
      {
        OFFSET 40.6238 0 0
        CHANNELS 3 Zrotation Xrotation Yrotation
        JOINT LeftToeBase
        {
          OFFSET 12.7242 0 0
          CHANNELS 3 Zrotation Xrotation Yrotation
          End Site
          {
            OFFSET 0 0 0
          }
        }
      }
    }
  }
  JOINT RightUpLeg
  {
    OFFSET -8.2249 1.95398 -2.59336
    CHANNELS 3 Zrotation Xrotation Yrotation
    JOINT RightLeg
    {
      OFFSET 43.5653 0 0
      CHANNELS 3 Zrotation Xrotation Yrotation
      JOINT RightFoot
      {
        OFFSET 40.6238 0 0
        CHANNELS 3 Zrotation Xrotation Yrotation
        JOINT RightToeBase
        {
          OFFSET 12.7242 0 0
          CHANNELS 3 Zrotation Xrotation Yrotation
          End Site
          {
            OFFSET 0 0 0
          }
        }
      }
    }
  }
  JOINT Spine
  {
    OFFSET 0.165834 0.87714 6.61349
    CHANNELS 3 Zrotation Xrotation Yrotation
    JOINT Spine1
    {
      OFFSET 7.38963 1.71661e-005 0
      CHANNELS 3 Zrotation Xrotation Yrotation
      JOINT Spine2
      {
        OFFSET 11.9445 1.14441e-005 0
        CHANNELS 3 Zrotation Xrotation Yrotation
        JOINT Spine3
        {
          OFFSET 14.7254 4.19617e-005 0
          CHANNELS 3 Zrotation Xrotation Yrotation
          JOINT Spine4
          {
            OFFSET 10.9679 0 0
            CHANNELS 3 Zrotation Xrotation Yrotation
            JOINT RightShoulder
            {
              OFFSET 2.46616 -1.6653 3.69651
              CHANNELS 3 Zrotation Xrotation Yrotation
              JOINT RightArm
              {
                OFFSET 13.0012 0 0
                CHANNELS 3 Zrotation Xrotation Yrotation
                JOINT RightForeArm
                {
                  OFFSET 28.7848 1.62311e-005 0
                  CHANNELS 3 Zrotation Xrotation Yrotation
                  JOINT RightHand
                  {
                    OFFSET 26.5688 1.62095e-005 0
                    CHANNELS 3 Zrotation Xrotation Yrotation
                    End Site
                    {
                      OFFSET 0 0 0
                    }
                  }
                }
              }
            }
            JOINT LeftShoulder
            {
              OFFSET 2.38034 -1.29275 -3.7523
              CHANNELS 3 Zrotation Xrotation Yrotation
              JOINT LeftArm
              {
                OFFSET 16.3182 6.07031e-005 0
                CHANNELS 3 Zrotation Xrotation Yrotation
                JOINT LeftForeArm
                {
                  OFFSET 27.0901 0 0
                  CHANNELS 3 Zrotation Xrotation Yrotation
                  JOINT LeftHand
                  {
                    OFFSET 24.5451 1.51738e-005 0
                    CHANNELS 3 Zrotation Xrotation Yrotation
                    End Site
                    {
                      OFFSET 0 0 0
                    }
                  }
                }
              }
            }
            JOINT Neck
            {
              OFFSET 5.0226 -0.0266342 0
              CHANNELS 3 Zrotation Xrotation Yrotation
              JOINT Head
              {
                OFFSET 6.69364 2.86102e-005 0
                CHANNELS 3 Zrotation Xrotation Yrotation
                End Site
                {
                  OFFSET 0 0 0
                }
              }
            }
          }
        }
      }
    }
  }
}
MOTION
Frames:	10
Frame Time:	0.0416667
-358.921 93.8106 337.886 -102.611 -39.7451 -81.7494 -169.498 20.3649 108.041 -38.9946 19.3281 1.29054 73.0381 6.58404 1.70018 15.621 -10.0986 7.19816 -173.372 3.92591 108.852 -8.32007 4.10259 0.1634 54.6418 -2.48427 0.536193 24.5446 1.34925 2.60011 -0.638884 12.7527 -90.5667 1.36568 -1.49081 -1.14959 -10.3048 -1.53995 -1.08286 -32.8398 -1.0699 -1.54445 -12.8271 -1.06992 -1.54445 92.5625 11.4279 -139.331 34.9765 -2.33647 -57.0845 -2.37007 8.28932 -0.00151899 -20.5866 1.27134 -10.9497 -80.1261 -12.2723 90.6809 -50.8829 7.98849 -50.3718 -151.227 29.7349 179.951 66.4317 -4.77069 5.34192 75.6147 -11.6017 -15.8296 -53.8424 6.49835 -3.41467 
-358.959 93.8106 337.832 -102.586 -39.8927 -81.5132 -169.512 20.5303 108.3 -39.0763 19.9171 1.37966 73.028 6.72881 2.07552 15.3223 -10.0948 6.84351 -173.326 4.0727 109.154 -8.33311 3.12815 0.204276 55.0596 -2.64881 -0.235096 23.3055 2.17663 1.54 -0.636916 12.7519 -90.5834 1.3664 -1.49325 -1.18266 -10.3042 -1.54388 -1.1158 -32.8391 -1.06918 -1.57673 -12.8265 -1.0692 -1.57674 92.594 11.4804 -139.316 36.3523 -1.61457 -57.1536 -2.30431 1.29165 -0.0015035 -16.7459 0.417879 -7.99757 -80.08 -12.1574 90.7876 -51.6643 7.68827 -50.0221 -150.695 28.4105 179.951 65.6899 -4.83835 5.05702 75.7701 -11.5098 -15.6864 -54.0051 6.73709 -3.88536 
-359.08 93.7195 337.616 -102.37 -40.6244 -80.5946 -169.53 21.5149 109.319 -39.6674 21.5683 1.51558 73.2275 7.17555 2.35353 15.0195 -10.3807 7.03815 -172.955 4.6419 110.039 -8.36606 4.40985 0.300634 55.0088 -2.61462 -0.22491 23.6112 2.04705 1.5004 -0.650372 12.7444 -90.6775 1.37154 -1.55607 -1.36816 -10.2991 -1.61477 -1.29835 -32.8326 -1.07301 -1.7725 -12.8199 -1.07302 -1.7725 92.4344 11.2065 -139.37 37.2379 -1.222 -57.2361 -3.09438 1.80125 0.0201493 -17.9222 0.590274 -8.75956 -79.9985 -12.1966 91.0102 -51.8891 7.5636 -49.8413 -150.147 25.9593 179.952 62.5573 -4.77135 4.49565 75.9995 -11.3483 -15.3535 -54.2671 7.11993 -4.81191 
-359.275 93.7101 337.45 -102.225 -40.9606 -80.0278 -169.341 21.9278 110.246 -40.0339 22.5549 1.34811 73.1192 7.21477 2.33531 15.6579 -9.98145 7.01444 -172.487 4.53833 110.676 -7.84518 5.33977 0.347451 54.6909 -2.60494 -0.21619 23.7658 1.96194 1.55641 -0.643747 12.735 -90.7144 1.3849 -1.55679 -1.43948 -10.286 -1.61863 -1.36958 -32.8178 -1.05231 -1.84073 -12.8051 -1.05231 -1.84074 92.2273 10.7981 -139.302 37.4409 -1.13869 -56.8271 -3.14452 1.49639 -0.193536 -18.2658 0.574764 -8.67087 -79.8912 -12.2212 91.2998 -50.9713 8.14736 -50.0389 -150.109 23.1871 179.953 55.6695 -4.4946 3.357 76.1844 -11.0524 -14.7424 -54.4544 7.62547 -6.28417 
-358.852 94.6333 341.071 -103.272 -38.2375 -90.4159 -172.409 11.0189 96.7868 -30.6959 9.97167 2.00528 71.65 4.9103 0.969248 13.7596 -10.9082 6.59215 -179.536 3.43159 99.1933 -16.1525 -4.85937 -0.766623 59.9125 -2.55947 0.397223 24.4427 1.72186 1.27491 -1.06054 12.7125 -89.5082 1.45397 -1.92927 0.901028 -10.2159 -1.88776 0.985077 -32.7622 -2.11085 0.279323 -12.7495 -2.11084 0.279321 92.0224 10.3669 -139.171 35.9909 -1.5619 -55.9716 -2.21455 2.45437 -1.58782 -18.4011 0.468411 -7.81936 -79.745 -12.2903 91.6976 -51.147 8.26127 -49.9142 -150.024 17.3993 179.955 43.9469 -4.1066 0.272008 76.6413 -10.4637 -13.6832 -54.7856 8.36883 -8.39236 
-358.713 95.1434 345.826 -103.547 -35.837 -101.828 178.986 3.19587 79.7801 -16.4637 -3.48745 4.64334 66.8325 2.92525 0.160544 13.7718 -10.8218 6.44617 171.865 7.67134 85.6466 -25.8738 -16.7619 -2.46387 65.6254 -3.3388 0.365751 25.988 1.09277 0.930333 -1.61457 12.6105 -88.1669 1.67091 -2.52086 3.50644 -10.0027 -2.3642 3.61383 -32.5337 -3.45778 2.58721 -12.5211 -3.45778 2.58721 91.5439 9.45143 -139.117 35.5147 -1.41647 -55.6062 -2.0275 2.31382 -1.43063 -18.0751 0.451593 -7.79053 -79.6354 -12.36 91.9974 -50.853 8.65649 -49.7546 -150.72 11.9969 -179.398 29.4765 -2.92719 -3.92893 77.0092 -9.76215 -12.3943 -55.0864 9.18949 -10.9284 
-358.987 95.1813 347.793 -103.269 -35.0667 -106.772 173.614 -2.46165 72.5543 -8.00043 -8.59272 6.25407 63.4516 2.77353 -0.0181873 13.7179 -10.804 6.35224 168.663 8.83254 77.7887 -29.8676 -21.9926 -3.27258 67.8953 -4.22069 0.0376794 26.3585 0.986619 0.649119 -1.85582 12.5267 -87.5526 1.84896 -2.7639 4.70491 -9.82802 -2.55438 4.82167 -32.3413 -4.04925 3.65841 -12.3286 -4.04924 3.6584 91.1316 8.62501 -138.998 35.2852 -1.15547 -55.293 -2.07332 2.43233 -1.55331 -18.4194 0.492125 -7.97153 -79.4878 -12.6369 92.4176 -49.4379 9.19802 -49.9338 -151.433 8.11556 -178.951 17.1582 -1.25765 -8.02527 77.4108 -9.01395 -11.037 -55.362 10.1196 -13.7149 
-359.257 95.1634 348.079 -102.747 -34.6685 -108.64 172.438 -2.25411 70.1737 -6.36715 -9.85499 6.19053 62.938 2.78398 -0.0125487 13.3916 -11.0086 6.36576 168.186 10.5835 75.7065 -31.5837 -23.4416 -3.97832 68.5043 -4.4199 -0.167967 26.772 0.810089 0.580448 -1.89778 12.433 -87.2693 2.03709 -2.73471 5.26669 -9.64211 -2.5006 5.38153 -32.141 -4.18986 4.20382 -12.1283 -4.18986 4.20383 90.4489 7.3982 -139.149 35.0147 -0.642187 -54.5173 -2.06654 1.54179 -1.65623 -18.1155 0.446887 -7.8927 -79.4105 -13.0352 92.6625 -48.506 9.59213 -49.9024 -152.188 4.83329 -178.731 7.68515 0.570898 -10.5611 77.6121 -8.14034 -9.54337 -55.5815 11.1711 -16.8751 
-359.393 95.1526 347.264 -102.04 -34.1943 -108.778 173.541 -1.71499 70.861 -6.80078 -9.43644 4.84289 62.5384 2.64154 0.0351785 14.3354 -10.2394 5.99262 169.359 11.3254 76.2713 -32.199 -22.6168 -4.91217 68.4144 -4.21632 -0.257189 26.7999 0.735306 0.857919 -1.78775 12.3454 -87.1746 2.20676 -2.47468 5.46447 -9.47376 -2.23216 5.56767 -31.9612 -4.00106 4.47101 -11.9486 -4.00107 4.47099 89.7423 6.02139 -139.09 33.8945 -0.615388 -53.5679 -1.54624 2.00955 -2.00639 -18.5076 0.416553 -7.56471 -79.3157 -13.7854 92.9789 -46.3199 10.4464 -50.5666 -153.137 3.35267 -179.176 2.06775 1.7408 -11.5234 77.6596 -7.01012 -7.73391 -55.5291 12.1861 -20.2938 
-359.544 95.0645 345.522 -101.361 -33.8072 -107.072 176.441 -1.09883 74.4018 -8.30452 -6.84533 2.91393 62.7479 2.90978 0.329961 14.1916 -10.4619 6.24749 171.966 11.143 79.4928 -31.7839 -19.5849 -5.63589 67.6469 -3.73779 -0.225385 26.8572 0.653282 1.10881 -1.51461 12.2751 -87.2918 2.33672 -1.97175 5.25047 -9.34368 -1.73909 5.33184 -31.8264 -3.45716 4.4177 -11.8137 -3.45717 4.41768 89.0731 4.75955 -139.145 33.8749 -0.157927 -52.1383 -1.6731 1.92224 -2.3736 -17.9656 0.382647 -7.43798 -79.4483 -14.4425 92.6971 -45.1365 10.8183 -50.4423 -153.294 2.16049 -178.026 -0.569953 2.33721 -12.2238 77.3497 -5.79708 -5.86599 -55.0925 13.1698 -23.9285 
